<?xml version="1.0" standalone="no"?>
<!DOCTYPE svg PUBLIC "-//W3C//DTD SVG 20010904//EN"
 "http://www.w3.org/TR/2001/REC-SVG-20010904/DTD/svg10.dtd">
<svg version="1.0" xmlns="http://www.w3.org/2000/svg"
 width="142.000000pt" height="142.000000pt" viewBox="0 0 142.000000 142.000000"
 preserveAspectRatio="xMidYMid meet">
<metadata>
Created by potrace 1.11, written by Peter Selinger 2001-2013
</metadata>
<g transform="translate(0.000000,142.000000) scale(0.100000,-0.100000)"
fill="#000000" stroke="none">
<path d="M710 1416 c0 -2 13 -20 30 -41 38 -47 69 -132 74 -200 10 -125 -90
-200 -197 -149 -70 33 -92 130 -49 213 l23 43 -28 -20 c-83 -60 -117 -124
-116 -218 1 -34 6 -71 12 -83 17 -31 16 -103 -2 -137 -33 -63 -113 -75 -169
-25 -26 23 -32 36 -32 69 -1 48 -8 44 -61 -32 -139 -202 -101 -489 88 -661
218 -199 537 -226 785 -65 232 149 305 408 181 641 -17 31 -43 68 -57 81 -15
12 -22 16 -16 8 12 -17 10 -62 -6 -99 -14 -33 -71 -73 -107 -74 -59 -1 -73 4
-107 33 -31 28 -44 60 -51 125 0 6 9 48 22 95 13 47 23 105 23 130 -1 137 -74
268 -190 339 -28 17 -50 29 -50 27z"/>
</g>
</svg>
